<?xml version="1.0" encoding="UTF-8"?>
<svg width="350mm" height="200mm" version="1.1" viewBox="0 0 350 200" xmlns="http://www.w3.org/2000/svg">
 <path id="bottlePath" d="m80.156 163.74-25.395 24.502s-15.653 1.7213-27.065-7.8503c-11.411-9.5717-11.518-23.926-11.518-23.926l22.248-27.997s10.961-12.942 21.112-21.528c4.723-3.9949 24.74-6.4754 36.151-14.282 10.547-7.2157 15.233-16.529 15.233-16.529s4.7586 2.1925 6.7799 3.9045c2.4202 2.0491 5.2675 6.0916 5.2675 6.0916s-9.9195 7.8093-15.42 17.068c-5.3218 8.9571-7.806 31.146-10 36.272-4.3885 10.253-17.393 24.275-17.393 24.275z" fill="none" stroke="#000000" stroke-width="4.4075"/>
 <path id="flamePath" d="m152 73.745c4.1142-7.5022 2.1678-8.9355 6.0317-18.864 1.211-3.1117-0.2337-4.4256-0.2337-4.4256s-6.9414 13.058-8.6751 9.5201c-1.7338-3.5381 0.38363-10.158 4.4338-13.929 4.0501-3.7705 10.335-3.4616 13.088-15.724 2.7522-12.263 2.4469-10.377 2.4469-10.377s-4.4021 8.8653-8.2611 12.569c-3.859 3.7034-13.212 0.95593-9.1577-3.9832 4.0544-4.9391 10.022-8.5068 10.022-8.5068s-7.4487-2.8311-12.385-0.49641c-4.936 2.3347-11.82 9.7593-13.232 15.723-1.4122 5.964 4.422 8.8281-0.36798 11.202s-16.635-4.6012-20.641 4.4398 1.5988 19.431 9.8259 25.962c5.93 4.5262 18.442 10.038 27.105-3.1107z" fill="none" stroke="#000000" stroke-width="3"/>
 <g id="mraPath" stroke-width=".265" aria-label="MRA">
  <path id="mPath" d="m162.13 152.89q4.6566-14.076 8.89-27.622 1.7992-5.715 3.7042-11.959 1.905-6.2442 3.81-12.382 1.905-6.1383 3.4925-11.853 1.6933-5.715 2.9633-10.583 5.8208 0 11.007-0.635t11.218-1.1642q-0.3175 2.3283-0.74083 5.2916-0.3175 2.8575-0.84667 6.0325-0.42333 3.175-0.95249 6.5616-0.52917 3.3867-1.27 8.6783t-2.0108 13.229h1.3758q3.0692-8.0433 5.08-13.335 2.0108-5.3975 3.2808-8.7841 1.27-3.3867 2.54-6.5616 1.3758-3.2808 2.54-6.1383 1.27-2.9633 2.3283-5.1858 2.6458-0.21167 4.9742-0.52916t4.6566-0.635q2.3283-0.42333 4.6566-0.74083 2.4342-0.42333 5.2916-0.9525-1.0583 6.1383-2.0108 12.594-0.9525 6.4558-1.6933 12.912-0.74083 6.35-1.4817 12.594-0.635 6.2442-1.1642 11.853-1.27 13.123-2.2225 25.612l-18.415 3.2808q0-0.52917 0.10583-2.8575 0.21167-2.3283 0.42333-5.715 0.3175-3.3866 0.74083-7.5141 0.52917-4.1275 0.9525-8.255 0.52917-4.1275 1.0583-7.9375 0.52917-3.9158 1.0583-6.6675h-0.9525q-1.4817 4.445-3.2808 9.4191-1.7992 4.8683-3.7042 9.9483-1.7992 5.08-3.5983 9.9483-1.7992 4.8683-3.175 9.3133-3.7042 0.10583-6.35 0.3175-2.6458 0.10583-6.1383 0.31749l3.3867-39.264h-1.5875q-0.21166 1.3758-1.0583 4.6566-0.84666 3.175-2.0108 7.4083-1.0583 4.1275-2.3283 8.6783-1.27 4.445-2.4342 8.3608-1.0583 3.81-1.7992 6.35-0.74083 2.4342-0.84667 2.7516z"/>
  <path id="aPath" d="m318.87 151.41q-2.6458 0.42333-5.8208 0.95249-3.175 0.52917-5.715 0.9525 0.42334-3.4925 0.84667-6.8792 0.3175-2.9633 0.52916-5.9266 0.3175-2.9633 0.52917-5.08h-9.2075l-4.2333 15.24q-2.3283 0.3175-5.5033 0.74084-3.175 0.31749-5.9266 0.63499-3.3866 0.42334-6.6675 0.84667 4.2333-14.076 8.3608-27.728 1.6933-5.715 3.4925-11.959 1.905-6.2441 3.7042-12.382 1.905-6.2441 3.5983-11.959t2.9633-10.477q7.1966-0.52916 14.605-1.27 7.5141-0.74083 14.605-2.0108-0.3175 3.3867-0.74083 8.4666-0.3175 4.9742-0.635 10.901-0.3175 5.9266-0.635 12.382-0.3175 6.4558-0.635 12.7-0.52916 14.605-1.1642 31.009-3.175 0.52917-6.35 0.84667zm-16.298-26.564q0.42333 0 1.4817 0 1.1642-0.10583 2.3283-0.10583 1.27-0.10583 2.3283-0.10583 1.0583-0.10584 1.4817-0.21167 0-0.635 0.10583-2.1167 0.21166-1.5875 0.3175-3.4925 0.21166-2.0108 0.42333-4.3392 0.21167-2.3283 0.42333-4.5508 0.42333-5.3975 1.0583-11.642l0.635-9.2075-1.5875 0.10583-2.4342 9.1016z"/>
 </g>
 <text transform="scale(.26458)" fill="#000000" font-family="sans-serif" font-size="40px" style="line-height:1.25;shape-inside:url(#rect53004);white-space:pre" xml:space="preserve"/>
 <path id="rPath" d="m231.24 153.63q2.8575-14.076 5.5033-27.517 0.9525-5.715 2.1167-11.853 1.1642-6.2441 2.1167-12.277 1.0583-6.1383 1.905-11.747 0.95249-5.715 1.4817-10.372 6.0325-1.905 13.017-2.7517 6.985-0.9525 13.864-0.9525 4.1275 0 6.7733 0.9525 2.7517 0.9525 4.2333 2.7517 1.5875 1.6933 2.2225 4.0217 0.635 2.3283 0.635 5.1858 0 4.2333-1.4817 8.3608-1.4817 4.0217-4.0216 7.7258-2.4342 3.5983-5.715 6.6675-3.175 2.9633-6.8791 4.8683 1.905 4.2333 4.0216 9.3133 2.2225 4.9742 4.1275 9.525 2.1167 5.2916 4.3392 10.583l-16.404 5.715q-2.1167-7.3025-3.81-13.758-0.74083-2.6458-1.4817-5.3975-0.74083-2.8575-1.3758-5.2916-0.635-2.54-1.0583-4.445-0.42333-1.905-0.52917-2.9633l-1.3758 0.42334q-0.635 3.3866-1.5875 8.255-0.84666 4.8683-1.5875 9.4191-0.9525 5.3975-1.905 11.112zm24.871-45.932q2.0108-0.21167 4.8683-1.6933 2.9633-1.4817 5.6092-3.4925 2.6458-2.1167 4.5508-4.3392 1.905-2.2225 1.905-3.9158 0-1.1642-0.74083-1.7992-0.74083-0.74083-2.1167-1.0583-1.27-0.42333-2.8575-0.52916-1.5875-0.10583-3.2808-0.10583-1.1642 0-2.4342 0.10583-1.1642 0-2.1167 0z" stroke-width=".265"/>
</svg>
