<?xml version="1.0" encoding="UTF-8"?>
<svg width="200mm" height="200mm" version="1.1" viewBox="0 0 200 200" xmlns="http://www.w3.org/2000/svg">
 <g fill="none" stroke="#000000">
  <path id="bottlePath" d="m80.156 163.74-25.395 24.502s-15.653 1.7213-27.065-7.8503c-11.411-9.5717-11.518-23.926-11.518-23.926l22.248-27.997s10.961-12.942 21.112-21.528c4.723-3.9949 24.74-6.4754 36.151-14.282 10.547-7.2157 15.233-16.529 15.233-16.529s4.7586 2.1925 6.7799 3.9045c2.4202 2.0491 5.2675 6.0916 5.2675 6.0916s-9.9195 7.8093-15.42 17.068c-5.3218 8.9571-7.806 31.146-10 36.272-4.3885 10.253-17.393 24.275-17.393 24.275z" stroke-width="4.4075"/>
  <path id="flamePath" d="m152 73.745c4.1142-7.5022 2.1678-8.9355 6.0317-18.864 1.211-3.1117-0.2337-4.4256-0.2337-4.4256s-6.9414 13.058-8.6751 9.5201c-1.7338-3.5381 0.38363-10.158 4.4338-13.929 4.0501-3.7705 10.335-3.4616 13.088-15.724 2.7522-12.263 2.4469-10.377 2.4469-10.377s-4.4021 8.8653-8.2611 12.569c-3.859 3.7034-13.212 0.95593-9.1577-3.9832 4.0544-4.9391 10.022-8.5068 10.022-8.5068s-7.4487-2.8311-12.385-0.49641c-4.936 2.3347-11.82 9.7593-13.232 15.723-1.4122 5.964 4.422 8.8281-0.36798 11.202s-16.635-4.6012-20.641 4.4398 1.5988 19.431 9.8259 25.962c5.93 4.5262 18.442 10.038 27.105-3.1107z" stroke-width="3"/>
 </g>
</svg>
